<svg width="22" height="22" viewBox="0 0 22 22" fill="none" xmlns="http://www.w3.org/2000/svg">
<path d="M15.5832 19.25V17.4167C15.5832 16.4442 15.1969 15.5116 14.5092 14.8239C13.8216 14.1363 12.889 13.75 11.9165 13.75H4.58317C3.61071 13.75 2.67808 14.1363 1.99045 14.8239C1.30281 15.5116 0.916504 16.4442 0.916504 17.4167V19.25M21.0832 19.25V17.4167C21.0826 16.6043 20.8122 15.815 20.3144 15.173C19.8167 14.5309 19.1198 14.0723 18.3332 13.8692M14.6665 2.86917C15.4552 3.07111 16.1543 3.52981 16.6535 4.17295C17.1527 4.81609 17.4237 5.60709 17.4237 6.42125C17.4237 7.23541 17.1527 8.02641 16.6535 8.66955C16.1543 9.31269 15.4552 9.77139 14.6665 9.97333M11.9165 6.41667C11.9165 8.44171 10.2749 10.0833 8.24984 10.0833C6.22479 10.0833 4.58317 8.44171 4.58317 6.41667C4.58317 4.39162 6.22479 2.75 8.24984 2.75C10.2749 2.75 11.9165 4.39162 11.9165 6.41667Z" stroke="#1E1E1E" stroke-width="1.6" stroke-linecap="round" stroke-linejoin="round"/>
</svg>
